<?xml version="1.0" encoding="UTF-8" standalone="no"?>
<!DOCTYPE svg PUBLIC "-//W3C//DTD SVG 1.1//EN" "http://www.w3.org/Graphics/SVG/1.1/DTD/svg11.dtd">
<svg width="100%" height="100%" viewBox="0 0 848 902" version="1.1" xmlns="http://www.w3.org/2000/svg" xmlns:xlink="http://www.w3.org/1999/xlink" xml:space="preserve" xmlns:serif="http://www.serif.com/" style="fill-rule:evenodd;clip-rule:evenodd;stroke-linejoin:round;stroke-miterlimit:2;">
    <g id="Icon" transform="matrix(1,0,0,1,-88.0497,-19)">
        <path d="M847.113,322.444C878.865,378.415 897,443.107 897,512C897,724.487 724.487,897 512,897C299.513,897 127,724.487 127,512C127,443.107 145.135,378.415 176.887,322.444L246.498,365.641C246.497,365.64 250.662,367.658 250.662,367.658L255.045,368.75L259.442,368.938L263.713,368.277L267.76,366.815L271.486,364.581L274.769,361.602L277.454,357.942C292.338,332.608 363.878,226 512,226C660.122,226 731.662,332.609 746.546,357.941C746.546,357.942 749.231,361.602 749.231,361.602L752.514,364.581L756.24,366.815L760.287,368.277L764.558,368.938L768.955,368.75L773.338,367.658L777.503,365.64L847.113,322.444ZM254.934,352.046L138.855,280.013C136.136,278.326 135.212,274.861 136.892,272.138C156.311,240.66 274.201,67 512,67C749.799,67 867.689,240.66 887.108,272.138C888.788,274.861 887.864,278.325 885.145,280.013L769.066,352.046C766.074,353.903 762.125,352.872 760.341,349.836C744.578,323.007 668.87,210 512,210C355.13,210 279.422,323.007 263.659,349.836C261.875,352.872 257.926,353.903 254.934,352.046ZM671.933,355.585L461.1,471.225C460.098,471.774 459.274,472.598 458.725,473.6L342.07,686.284C339.184,691.545 344.955,697.316 350.216,694.43L562.9,577.775C563.902,577.226 564.726,576.402 565.275,575.4L681.93,362.716C684.58,357.886 679.932,352.626 675.082,354.03C673.936,354.216 672.835,354.734 671.933,355.585ZM488.737,547.763C475.686,534.711 475.686,513.55 488.737,500.498C501.789,487.447 522.95,487.447 536.002,500.498C549.053,513.55 549.053,534.711 536.002,547.763C522.95,560.814 501.789,560.814 488.737,547.763ZM557.968,718.738L566.25,749.648C567.107,752.847 570.4,754.748 573.599,753.891C576.798,753.034 578.699,749.741 577.842,746.542L569.56,715.632C568.703,712.433 565.41,710.532 562.211,711.389C559.012,712.246 557.111,715.539 557.968,718.738ZM446.158,301.458L454.44,332.368C455.297,335.567 458.59,337.468 461.789,336.611C464.988,335.754 466.889,332.461 466.032,329.262L457.75,298.352C456.893,295.153 453.6,293.252 450.401,294.109C447.202,294.966 445.301,298.259 446.158,301.458ZM289.458,589.842L305.396,585.572L321.334,581.301C324.533,580.443 326.434,577.151 325.577,573.952C324.719,570.753 321.427,568.852 318.228,569.709L302.29,573.98L286.352,578.25C283.154,579.107 281.252,582.4 282.109,585.599C282.966,588.797 286.259,590.699 289.458,589.842ZM712,530L744,530C747.311,530 750,527.311 750,524C750,520.689 747.311,518 744,518L712,518C708.689,518 706,520.689 706,524C706,527.311 708.689,530 712,530ZM518,324L518,292C518,288.689 515.311,286 512,286C508.689,286 506,288.689 506,292L506,324C506,327.311 508.689,330 512,330C515.311,330 518,327.311 518,324ZM617.196,353.795L625.196,339.938L633.196,326.082C634.852,323.214 633.868,319.542 631,317.886C628.132,316.23 624.46,317.214 622.804,320.082L614.804,333.938L606.804,347.795C605.148,350.663 606.132,354.336 609,355.991C611.868,357.647 615.541,356.663 617.196,353.795ZM606.804,700.205L614.804,714.062L622.804,727.918C624.46,730.786 628.132,731.77 631,730.114C633.868,728.458 634.852,724.786 633.196,721.918L625.196,708.062L617.196,694.205C615.541,691.337 611.868,690.353 609,692.009C606.132,693.664 605.148,697.337 606.804,700.205ZM308.082,413.196L321.938,421.196L335.795,429.196C338.663,430.852 342.336,429.868 343.991,427C345.647,424.132 344.663,420.459 341.795,418.804L327.938,410.804L314.082,402.804C311.214,401.148 307.542,402.132 305.886,405C304.23,407.868 305.214,411.54 308.082,413.196ZM569.56,332.368L577.842,301.458C578.699,298.259 576.798,294.966 573.599,294.109C570.4,293.252 567.107,295.153 566.25,298.352L557.968,329.262C557.111,332.461 559.012,335.754 562.211,336.611C565.41,337.468 568.703,335.567 569.56,332.368ZM457.75,751.648L462.02,735.71L466.291,719.772C467.148,716.573 465.247,713.281 462.048,712.423C458.849,711.566 455.557,713.467 454.699,716.666L450.428,732.604L446.158,748.542C445.301,751.741 447.203,755.034 450.401,755.891C453.6,756.748 456.893,754.846 457.75,751.648ZM314.082,645.196L328.371,636.946L342.661,628.696C345.529,627.041 346.513,623.368 344.857,620.5C343.202,617.632 339.529,616.648 336.661,618.304L322.371,626.554L308.082,634.804C305.214,636.46 304.23,640.132 305.886,643C307.542,645.868 311.214,646.852 314.082,645.196ZM518,756L518,723C518,719.689 515.311,717 512,717C508.689,717 506,719.689 506,723L506,756C506,759.311 508.689,762 512,762C515.311,762 518,759.311 518,756ZM688.205,429.196L702.061,421.196L715.918,413.196C718.786,411.541 719.77,407.868 718.114,405C716.459,402.132 712.786,401.148 709.918,402.804L696.061,410.804L682.205,418.804C679.337,420.46 678.353,424.132 680.009,427C681.665,429.868 685.337,430.852 688.205,429.196ZM286.352,469.75L317.262,478.032C320.461,478.889 323.754,476.988 324.611,473.789C325.468,470.59 323.567,467.297 320.368,466.44L289.458,458.158C286.259,457.301 282.966,459.202 282.109,462.401C281.252,465.6 283.153,468.893 286.352,469.75ZM401.196,727.918L409.446,713.628L417.696,699.339C419.352,696.471 418.368,692.799 415.5,691.143C412.632,689.487 408.96,690.471 407.304,693.339L399.054,707.628L390.804,721.918C389.148,724.786 390.132,728.459 393,730.114C395.868,731.77 399.541,730.786 401.196,727.918ZM649.178,669.664L671.806,692.292C674.148,694.633 677.95,694.633 680.292,692.292C682.633,689.95 682.633,686.148 680.292,683.806L657.664,661.178C655.322,658.837 651.52,658.837 649.178,661.178C646.837,663.52 646.837,667.322 649.178,669.664ZM703.632,581.56L734.542,589.842C737.741,590.699 741.034,588.798 741.891,585.599C742.748,582.4 740.847,579.107 737.648,578.25L706.738,569.968C703.539,569.111 700.246,571.012 699.389,574.211C698.532,577.41 700.433,580.703 703.632,581.56ZM343.708,364.194L355.022,375.508L366.337,386.821C368.678,389.162 372.48,389.162 374.822,386.82C377.163,384.479 377.163,380.677 374.821,378.335L363.508,367.022L352.194,355.708C349.852,353.367 346.05,353.367 343.708,355.708C341.367,358.05 341.367,361.852 343.708,364.194ZM280,530L312,530C315.311,530 318,527.311 318,524C318,520.689 315.311,518 312,518L280,518C276.689,518 274,520.689 274,524C274,527.311 276.689,530 280,530ZM682.205,629.196L696.061,637.196L709.918,645.196C712.786,646.852 716.459,645.868 718.114,643C719.77,640.132 718.786,636.459 715.918,634.804L702.061,626.804L688.205,618.804C685.337,617.148 681.665,618.132 680.009,621C678.353,623.868 679.337,627.54 682.205,629.196ZM706.738,478.032L737.648,469.75C740.847,468.893 742.748,465.6 741.891,462.401C741.034,459.202 737.741,457.301 734.542,458.158L703.632,466.44C700.433,467.297 698.532,470.59 699.389,473.789C700.246,476.988 703.539,478.889 706.738,478.032ZM390.804,326.082L398.804,339.939L406.804,353.795C408.46,356.663 412.132,357.647 415,355.991C417.868,354.335 418.852,350.663 417.196,347.795L409.196,333.939L401.196,320.082C399.541,317.214 395.868,316.23 393,317.886C390.132,319.541 389.148,323.214 390.804,326.082Z" style="fill:white;"/>
    </g>
</svg>
