<?xml version="1.0" encoding="UTF-8" standalone="no"?>
<!DOCTYPE svg PUBLIC "-//W3C//DTD SVG 1.1//EN" "http://www.w3.org/Graphics/SVG/1.1/DTD/svg11.dtd">
<svg width="100%" height="100%" viewBox="0 0 6386 1000" version="1.1" xmlns="http://www.w3.org/2000/svg" xmlns:xlink="http://www.w3.org/1999/xlink" xml:space="preserve" xmlns:serif="http://www.serif.com/" style="fill-rule:evenodd;clip-rule:evenodd;stroke-linejoin:round;stroke-miterlimit:2;">
    <g transform="matrix(2,0,0,2,0,0)">
        <g transform="matrix(1.31484,0,0,1,-502.648,0)">
            <path d="M517.084,387.96C490.648,387.96 467.475,379.97 447.567,363.99C427.658,348.01 412.191,325.743 401.167,297.189C390.143,268.635 384.631,235.312 384.631,197.218C384.631,159.345 390.242,125.889 401.463,96.849C412.685,67.81 428.682,45.115 449.456,28.765C470.23,12.415 494.809,4.24 523.193,4.24C555.39,4.24 582.21,14.368 603.654,34.624C625.097,54.88 638.85,83.077 644.914,119.217L599.024,119.217C595.157,98.779 586.719,82.623 573.708,70.751C560.698,58.878 543.83,52.942 523.105,52.942C503.156,52.942 485.857,58.761 471.207,70.399C456.557,82.037 445.33,98.627 437.524,120.169C429.718,141.712 425.815,167.425 425.815,197.309C425.815,227.265 429.725,253.021 437.543,274.577C445.361,296.133 456.344,312.561 470.492,323.859C484.64,335.157 501.019,340.807 519.628,340.807C548.046,340.807 569.506,330.04 584.009,308.506C598.512,286.972 606.887,258.157 609.133,222.062L531.488,222.062L531.488,181.235L650.097,181.235L650.097,381.6L613.057,381.6L609.794,325.031C603.32,338.546 595.852,350.014 587.391,359.435C578.931,368.857 568.998,375.966 557.594,380.764C546.19,385.561 532.687,387.96 517.084,387.96Z" style="fill:white;fill-rule:nonzero;"/>
            <path d="M793.958,387.96C774.886,387.96 757.752,382.158 742.554,370.553C727.356,358.948 715.392,342.635 706.66,321.615C697.929,300.594 693.563,276.163 693.563,248.322C693.563,220.127 697.984,195.545 706.827,174.577C715.67,153.609 727.742,137.335 743.042,125.755C758.343,114.175 775.527,108.385 794.594,108.385C813.925,108.385 831.173,114.175 846.337,125.755C861.501,137.335 873.449,153.585 882.181,174.507C890.912,195.428 895.278,220.022 895.278,248.288C895.278,276.218 890.858,300.677 882.017,321.664C873.176,342.652 861.122,358.948 845.855,370.553C830.588,382.158 813.289,387.96 793.958,387.96ZM794.077,342.397C804.956,342.397 814.922,338.892 823.975,331.884C833.028,324.875 840.31,314.341 845.821,300.282C851.332,286.223 854.087,268.842 854.087,248.139C854.087,227.149 851.389,209.703 845.994,195.802C840.598,181.9 833.387,171.449 824.359,164.449C815.332,157.449 805.429,153.948 794.65,153.948C784.107,153.948 774.258,157.449 765.102,164.449C755.946,171.449 748.599,181.913 743.061,195.839C737.523,209.765 734.754,227.221 734.754,248.206C734.754,268.881 737.509,286.244 743.02,300.295C748.531,314.345 755.768,324.875 764.73,331.884C773.693,338.892 783.475,342.397 794.077,342.397Z" style="fill:white;fill-rule:nonzero;"/>
            <path d="M942.662,498.2L942.662,114.745L978.858,114.745L982.889,156.06C987.176,147.696 992.537,139.88 998.971,132.612C1005.41,125.344 1013.15,119.489 1022.2,115.047C1031.26,110.606 1041.71,108.385 1053.56,108.385C1073.02,108.385 1090.06,114.49 1104.66,126.699C1119.26,138.908 1130.7,155.53 1138.98,176.565C1147.25,197.599 1151.39,221.675 1151.39,248.794C1151.39,275.537 1147.23,299.41 1138.91,320.414C1130.6,341.418 1119.09,357.927 1104.39,369.94C1089.68,381.953 1072.67,387.96 1053.36,387.96C1037.41,387.96 1023.41,383.803 1011.35,375.488C999.297,367.174 989.836,355.522 982.971,340.533L982.971,498.2L942.662,498.2ZM1046.82,341.867C1059.17,341.867 1070.15,337.967 1079.75,330.169C1089.35,322.371 1096.87,311.448 1102.29,297.4C1107.72,283.353 1110.43,266.976 1110.43,248.272C1110.43,229.545 1107.72,213.147 1102.29,199.077C1096.87,185.007 1089.35,174.057 1079.75,166.225C1070.15,158.394 1059.17,154.478 1046.82,154.478C1034.25,154.478 1023.16,158.394 1013.56,166.225C1003.95,174.057 996.478,184.995 991.133,199.04C985.788,213.085 983.116,229.462 983.116,248.172C983.116,266.899 985.788,283.293 991.133,297.355C996.478,311.416 1003.95,322.35 1013.56,330.157C1023.16,337.963 1034.25,341.867 1046.82,341.867Z" style="fill:white;fill-rule:nonzero;"/>
            <path d="M1198.77,381.6L1198.77,0L1239.08,0L1239.08,158.039C1245.82,142.57 1255.13,130.427 1267.03,121.61C1278.93,112.793 1292.19,108.385 1306.82,108.385C1322.8,108.385 1336.56,112.647 1348.09,121.171C1359.63,129.695 1368.47,142.556 1374.64,159.754C1380.8,176.951 1383.88,198.499 1383.88,224.397L1383.88,381.6L1343.97,381.6L1343.97,229.755C1343.97,204.712 1339.94,185.736 1331.88,172.826C1323.82,159.915 1311.92,153.46 1296.17,153.46C1285.52,153.46 1275.84,156.857 1267.14,163.65C1258.45,170.443 1251.6,180.248 1246.59,193.065C1241.59,205.882 1239.08,221.573 1239.08,240.14L1239.08,381.6L1198.77,381.6Z" style="fill:white;fill-rule:nonzero;"/>
            <path d="M1527.74,387.96C1508.28,387.96 1491.05,382.165 1476.05,370.574C1461.04,358.983 1449.28,342.746 1440.76,321.863C1432.24,300.981 1427.98,276.677 1427.98,248.951C1427.98,220.817 1432.19,196.249 1440.6,175.248C1449.02,154.247 1460.77,137.852 1475.86,126.065C1490.94,114.278 1508.43,108.385 1528.32,108.385C1548.25,108.385 1565.35,114.18 1579.62,125.771C1593.88,137.362 1604.86,152.77 1612.56,171.993C1620.26,191.217 1624.11,212.486 1624.11,235.8C1624.11,239.334 1624.09,243.126 1624.07,247.179C1624.04,251.231 1623.87,255.697 1623.56,260.578L1457.6,260.578L1457.6,223.205L1583.95,223.205C1583.23,201.005 1577.62,183.646 1567.12,171.128C1556.63,158.609 1543.52,152.35 1527.81,152.35C1517.02,152.35 1507.03,155.581 1497.86,162.043C1488.68,168.505 1481.33,178.028 1475.79,190.61C1470.25,203.192 1467.48,218.998 1467.48,238.028L1467.48,253.058C1467.48,272.718 1470.24,289.308 1475.74,302.829C1481.25,316.349 1488.57,326.559 1497.69,333.457C1506.81,340.355 1516.78,343.804 1527.59,343.804C1540.55,343.804 1551.2,340.101 1559.56,332.695C1567.91,325.289 1574.08,315.223 1578.06,302.497L1618.41,302.497C1614.87,318.751 1608.96,333.315 1600.66,346.189C1592.37,359.064 1582.1,369.244 1569.87,376.731C1557.63,384.217 1543.59,387.96 1527.74,387.96Z" style="fill:white;fill-rule:nonzero;"/>
            <path d="M1669.13,381.6L1669.13,114.745L1705.33,114.745L1708.78,165.062C1713.42,153.065 1719.35,142.868 1726.56,134.471C1733.78,126.074 1742.35,119.627 1752.25,115.13C1762.16,110.633 1773.31,108.385 1785.69,108.385L1785.69,164.085L1771.5,164.085C1763.01,164.085 1755.01,165.479 1747.48,168.267C1739.95,171.055 1733.32,175.596 1727.58,181.889C1721.85,188.183 1717.4,196.775 1714.21,207.665C1711.03,218.555 1709.44,232.129 1709.44,248.388L1709.44,381.6L1669.13,381.6Z" style="fill:white;fill-rule:nonzero;"/>
            <path d="M1824.92,381.6L1824.92,10.6L1872.43,10.6L1968.05,261.157L2063.23,10.6L2110.98,10.6L2110.98,381.6L2070.67,381.6L2070.67,103.408L1983.46,329.66L1952.51,329.66L1865.23,104.095L1865.23,381.6L1824.92,381.6Z" style="fill:white;fill-rule:nonzero;"/>
            <path d="M2234.99,387.96C2218.38,387.96 2204.59,384.232 2193.61,376.776C2182.64,369.32 2174.46,359.348 2169.1,346.86C2163.73,334.372 2161.04,320.796 2161.04,306.133C2161.04,288.588 2164.48,273.59 2171.36,261.141C2178.24,248.691 2188.15,239.107 2201.11,232.388C2214.06,225.67 2229.62,222.31 2247.77,222.31L2300.32,222.31C2300.32,206.703 2298.6,193.754 2295.16,183.463C2291.72,173.172 2286.55,165.429 2279.66,160.234C2272.76,155.039 2264.11,152.441 2253.7,152.441C2241.66,152.441 2231.29,156.271 2222.59,163.931C2213.9,171.592 2208.55,182.886 2206.55,197.814L2166.18,197.814C2167.75,178.85 2172.62,162.747 2180.8,149.506C2188.98,136.264 2199.5,126.1 2212.36,119.014C2225.22,111.928 2239.03,108.385 2253.78,108.385C2272.61,108.385 2288.49,112.792 2301.41,121.606C2314.32,130.42 2324.09,142.849 2330.7,158.892C2337.31,174.936 2340.62,193.999 2340.62,216.083L2340.62,381.6L2305.5,381.6L2302.22,336.343C2299.49,343.597 2296.05,350.365 2291.91,356.644C2287.75,362.924 2282.94,368.382 2277.46,373.016C2271.97,377.651 2265.71,381.3 2258.66,383.964C2251.61,386.628 2243.72,387.96 2234.99,387.96ZM2242.58,344.773C2251.27,344.773 2259.1,342.482 2266.06,337.9C2273.02,333.318 2278.98,327.064 2283.94,319.139C2288.9,311.214 2292.7,302.264 2295.33,292.291C2297.96,282.317 2299.4,271.918 2299.65,261.091L2299.65,259.683L2251.65,259.683C2240.13,259.683 2230.8,261.526 2223.64,265.211C2216.48,268.896 2211.32,273.977 2208.15,280.453C2204.99,286.929 2203.41,294.36 2203.41,302.746C2203.41,311.353 2204.93,318.816 2207.99,325.134C2211.05,331.453 2215.51,336.306 2221.4,339.693C2227.28,343.08 2234.34,344.773 2242.58,344.773Z" style="fill:white;fill-rule:nonzero;"/>
            <path d="M2392.56,498.2L2392.56,114.745L2428.75,114.745L2432.78,156.06C2437.07,147.696 2442.43,139.88 2448.87,132.612C2455.3,125.344 2463.05,119.489 2472.1,115.047C2481.15,110.606 2491.6,108.385 2503.46,108.385C2522.92,108.385 2539.95,114.49 2554.55,126.699C2569.16,138.908 2580.6,155.53 2588.87,176.565C2597.14,197.599 2601.28,221.675 2601.28,248.794C2601.28,275.537 2597.12,299.41 2588.81,320.414C2580.49,341.418 2568.98,357.927 2554.28,369.94C2539.58,381.953 2522.57,387.96 2503.26,387.96C2487.31,387.96 2473.31,383.803 2461.25,375.488C2449.19,367.174 2439.73,355.522 2432.87,340.533L2432.87,498.2L2392.56,498.2ZM2496.71,341.867C2509.07,341.867 2520.04,337.967 2529.64,330.169C2539.25,322.371 2546.76,311.448 2552.19,297.4C2557.61,283.353 2560.32,266.976 2560.32,248.272C2560.32,229.545 2557.61,213.147 2552.19,199.077C2546.76,185.007 2539.25,174.057 2529.64,166.225C2520.04,158.394 2509.07,154.478 2496.71,154.478C2484.14,154.478 2473.05,158.394 2463.45,166.225C2453.85,174.057 2446.37,184.995 2441.03,199.04C2435.68,213.085 2433.01,229.462 2433.01,248.172C2433.01,266.899 2435.68,283.293 2441.03,297.355C2446.37,311.416 2453.85,322.35 2463.45,330.157C2473.05,337.963 2484.14,341.867 2496.71,341.867Z" style="fill:white;fill-rule:nonzero;"/>
            <path d="M2727.24,387.96C2709.99,387.96 2694.9,384.217 2681.98,376.731C2669.07,369.244 2658.86,358.784 2651.38,345.349C2643.89,331.914 2639.35,316.275 2637.75,298.431L2678.57,298.431C2679.95,306.862 2682.62,314.617 2686.6,321.698C2690.57,328.778 2695.95,334.427 2702.75,338.645C2709.55,342.863 2717.73,344.972 2727.27,344.972C2736.1,344.972 2743.35,343.28 2749.03,339.896C2754.72,336.511 2758.96,331.953 2761.77,326.219C2764.58,320.486 2765.99,314.254 2765.99,307.524C2765.99,297.703 2764.14,290.197 2760.44,285.007C2756.74,279.818 2751.34,275.72 2744.24,272.714C2737.14,269.708 2728.57,266.965 2718.53,264.487C2709.34,262.184 2700.36,259.218 2691.6,255.588C2682.85,251.958 2675.02,247.295 2668.11,241.597C2661.2,235.9 2655.72,228.705 2651.67,220.012C2647.62,211.32 2645.6,200.713 2645.6,188.191C2645.6,172.832 2648.68,159.123 2654.83,147.063C2660.98,135.002 2669.77,125.541 2681.2,118.679C2692.64,111.816 2706.21,108.385 2721.92,108.385C2744.45,108.385 2762.6,115.384 2776.35,129.382C2790.11,143.38 2798.14,163.268 2800.46,189.044L2761.45,189.044C2760.21,177.263 2756.14,168.056 2749.24,161.422C2742.34,154.789 2733.11,151.472 2721.55,151.472C2709.83,151.472 2700.91,154.495 2694.81,160.54C2688.7,166.586 2685.64,174.494 2685.64,184.266C2685.64,190.681 2687.39,196.376 2690.87,201.35C2694.35,206.325 2699.55,210.534 2706.45,213.979C2713.36,217.424 2721.79,220.447 2731.73,223.047C2745.87,226.608 2758.57,231.015 2769.81,236.268C2781.06,241.521 2790.07,249.3 2796.83,259.605C2803.6,269.909 2806.95,284.616 2806.88,303.723C2807.08,320.435 2803.89,335.135 2797.31,347.825C2790.73,360.515 2781.5,370.376 2769.61,377.41C2757.72,384.443 2743.59,387.96 2727.24,387.96Z" style="fill:white;fill-rule:nonzero;"/>
        </g>
        <g transform="matrix(0.342169,0,0,0.342169,366.7,68.7046)">
            <path d="M681.93,362.716C684.816,357.455 679.045,351.684 673.784,354.57L461.1,471.225C460.098,471.774 459.274,472.598 458.725,473.6L342.07,686.284C339.184,691.545 344.955,697.316 350.216,694.43L562.9,577.775C563.902,577.226 564.726,576.402 565.275,575.4L681.93,362.716ZM488.737,547.763C501.789,560.814 522.95,560.814 536.002,547.763C549.053,534.711 549.053,513.55 536.002,500.498C522.95,487.447 501.789,487.447 488.737,500.498C475.686,513.55 475.686,534.711 488.737,547.763Z" style="fill:white;"/>
        </g>
    </g>
</svg>
